<?xml version="1.0" encoding="utf-8"?>
<!-- Generator: Adobe Illustrator 16.0.4, SVG Export Plug-In . SVG Version: 6.00 Build 0)  -->
<!DOCTYPE svg PUBLIC "-//W3C//DTD SVG 1.1//EN" "http://www.w3.org/Graphics/SVG/1.1/DTD/svg11.dtd">
<svg version="1.1" id="Layer_1" xmlns="http://www.w3.org/2000/svg" xmlns:xlink="http://www.w3.org/1999/xlink" x="0px" y="0px"
	 width="240.96px" height="264.24px" viewBox="0 0 240.96 264.24" enable-background="new 0 0 240.96 264.24" xml:space="preserve">
<path fill="none" stroke="#000000" stroke-miterlimit="10" d="M115.787,13.796c12.936,1.623,17.054,1.812,27.7,3.404
	c1.041,0.267,2.08,0.534,3.121,0.801c6.896,3.085,13.712,5.13,17.731,8.145c3.869,2.902,9.873,7.183,13.986,11.544
	c1.894,1.716,4.78,6.077,6.094,8.948c2.354,4.912,3.789,8.79,5.527,11.467c1.667,3.897,2.531,6.841,3.395,9.43
	c1.632,4.029,1.302,8.651,2.933,12.68c0.363,3.171,0.534,7.918,0.897,11.089c0.705,5.07,0.453,6.675,0.363,12.666
	c2.127,2.127,3.928,0.529,5.385,3.611c1.966,3.712,2.812,4.144,5.494,6.064c12.457,3.71,17.58,15.338,19.336,19.361
	c2.939,7.458,1.133,22.218-0.682,24.031c0,4.728-1.461,7.642-2.898,12.021c-0.692,2.104-2.047,4.758-3.803,7.551
	c-0.813,1.297-14.404,4.672-15.729,5.621c-0.644,0.461,0.563,2.039,3.129,1.479c4.293-0.939,6.854,1.632,10.002,1.378
	c1.433-0.114-4.214,3.226-4.636,3.781c-0.1,0.134,13.023-0.995,13.191-1.177c-4.076,4.387-15.686,4.651-16.255,5.266
	c-1.632,1.758,4.617-0.307,3.007,0.965c-2.597,2.047-10.621,0.962-12.551,0.812c-6.994-0.541-4.305,3.024-5.086,3.371
	c-3.23,1.434-6.312,1.442-9.594,1.326c-0.877-0.877-7.426-6.302-10.012-10.498c-2.035-3.306-4.998-13.938-5.142-14.746
	c-0.487-2.787-1.981,0.722-2.043,1.008c-0.295,1.404-0.258,2.672-0.623,2.672c-0.271-0.807,8.212,19.977,10.392,24.885
	c-9.086,3.68-12.133,5.089-19.051,9.695c-8.093,5.389-15.105,9.068-23.865,13.438c-9.435,4.315-21.422,11.843-22.95,12.864
	c-2.701,1.809-15.855,12.671-16.034,11.623c-0.413-2.425-5.716-16.623-7.758-20.675c-4.225,2.145-6.676,4.758-17.953,10.741
	c-0.091-5.904-9.843-14.598-9.934-20.502c-1.865,5.15,24.064-21.244,23.934-21.381c-2.282-2.281-2.32-6.772-5.012-10.355
	c-0.182-0.131-2.718-3.241-2.9-3.372c-3.438-2.015-10.255-2.002-17.231-1.87c-1.437,0-9.264-1.355-12.244-4.081
	c-5.567-6.375-6.103-9.09-5.56-13.805c0.529-4.591,2.011-5.955-0.693-8.3c0-1.576-4.041-3.472-5.199-3.472
	c-0.659-3.819-0.148-4.562,1.017-7.319c-5.09-1.444-4.467-5.301-3.02-7.049c1.648-1.99,0.581-6.624-0.586-9.081
	c0-0.098-8.621-0.995-11.51-2.877c-1.786-1.861-2.275-2.996-2.354-5.232c2.318-5.673,5.165-10.876,9.466-15.477
	c0.13-0.272,5.583-4.679,5.714-4.952c1.744-1.307,2.152-1.864,3.896-3.171c-0.503-2.024-1.75-4.351-1.503-5.816
	c0.114-0.677,0.762-0.561,1.513-0.897c0.379-0.17,2.396,3.196,2.819,2.938c0.397-0.242,0.806,0.024,1.536-0.978
	c0.498-0.682,1.079-1.16,1.216-1.636c0.285-0.992-2.288-5.645-2.288-6.805c-0.034-1.306,0.352-2.846,1.33-4.84
	c2.857-10.31,6.294-16.813,10.229-25.484c1.314-2.514,8.066-11.938,9.596-14.279c0.904-2.344-1.283-0.979,1.702-4.701
	c0,0,10.729-9.703,16.954-13.994c4.912-2.376,8.707-4.538,14.949-6.226C102.929,14.477,107.977,14.347,115.787,13.796"/>
<path fill="none" stroke="#000000" stroke-miterlimit="10" d="M193.898,122.535c-1.818-0.808-3.639-2.382-5.459-3.189
	c0,2.41-3.451,6.062-2.443,9.081c1.207,3.626,2.66,6.988,2.66,10.93c-0.045,0.076-1.051,3.263-1.097,3.338
	c0.955-1.555,3.081-3.825,4.036-7.323c0-4.543,3.059-7.915,3.059-12.249c-0.307-0.205-1.648-0.5-1.955-0.705
	C192.753,122.425,193.844,122.525,193.898,122.535z"/>
<path fill="none" stroke="#000000" stroke-miterlimit="10" d="M97.447,222.015c0.318-0.109,3.434-2.177,3.752-2.285
	c10.682-7.906,18.569-13.859,29.25-21.769c5.055-3.467,13.629-9.36,18.51-11.877c-0.211-0.295-0.438-0.767-0.65-1.062
	c-0.121,0-3.602,1.851-5.572,3.037c-3.298,2.118-6.304,3.903-8.908,5.84c-4.324,2.916-16.862,11.929-22.062,15.828
	c-1.859,1.396-12.62,9.604-15.035,11.369"/>
</svg>
